<mxfile host="app.diagrams.net" modified="2023-05-24T10:47:30.772Z" agent="5.0 (X11)" etag="KWzHOqbwmyffENoIft71" version="20.4.1" type="github">
  <diagram id="CWeAnA3USplmWAZv2G4P" name="Page-1">
    <mxGraphModel dx="1364" dy="752" grid="1" gridSize="10" guides="1" tooltips="1" connect="1" arrows="1" fold="1" page="1" pageScale="1" pageWidth="850" pageHeight="1100" math="0" shadow="0">
      <root>
        <mxCell id="0" />
        <mxCell id="1" parent="0" />
        <mxCell id="RySmwU1NaelSAj_QudRe-3" style="edgeStyle=orthogonalEdgeStyle;rounded=0;orthogonalLoop=1;jettySize=auto;html=1;exitX=0.5;exitY=1;exitDx=0;exitDy=0;entryX=0.5;entryY=0;entryDx=0;entryDy=0;" edge="1" parent="1" source="RySmwU1NaelSAj_QudRe-1" target="RySmwU1NaelSAj_QudRe-2">
          <mxGeometry relative="1" as="geometry" />
        </mxCell>
        <mxCell id="RySmwU1NaelSAj_QudRe-1" value="CRON START" style="ellipse;whiteSpace=wrap;html=1;" vertex="1" parent="1">
          <mxGeometry x="410" y="30" width="80" height="50" as="geometry" />
        </mxCell>
        <mxCell id="RySmwU1NaelSAj_QudRe-6" style="edgeStyle=orthogonalEdgeStyle;rounded=0;orthogonalLoop=1;jettySize=auto;html=1;" edge="1" parent="1" source="RySmwU1NaelSAj_QudRe-2" target="RySmwU1NaelSAj_QudRe-5">
          <mxGeometry relative="1" as="geometry" />
        </mxCell>
        <mxCell id="RySmwU1NaelSAj_QudRe-2" value="Cron Service " style="rounded=1;whiteSpace=wrap;html=1;" vertex="1" parent="1">
          <mxGeometry x="390" y="120" width="120" height="60" as="geometry" />
        </mxCell>
        <mxCell id="RySmwU1NaelSAj_QudRe-7" style="edgeStyle=orthogonalEdgeStyle;rounded=0;orthogonalLoop=1;jettySize=auto;html=1;exitX=1;exitY=0.5;exitDx=0;exitDy=0;" edge="1" parent="1" source="RySmwU1NaelSAj_QudRe-5">
          <mxGeometry relative="1" as="geometry">
            <mxPoint x="550" y="290" as="targetPoint" />
          </mxGeometry>
        </mxCell>
        <mxCell id="RySmwU1NaelSAj_QudRe-18" style="edgeStyle=orthogonalEdgeStyle;rounded=0;orthogonalLoop=1;jettySize=auto;html=1;entryX=0.5;entryY=0;entryDx=0;entryDy=0;" edge="1" parent="1" source="RySmwU1NaelSAj_QudRe-5" target="RySmwU1NaelSAj_QudRe-17">
          <mxGeometry relative="1" as="geometry" />
        </mxCell>
        <mxCell id="RySmwU1NaelSAj_QudRe-5" value="If CalDAV" style="rhombus;whiteSpace=wrap;html=1;" vertex="1" parent="1">
          <mxGeometry x="410" y="250" width="80" height="80" as="geometry" />
        </mxCell>
        <mxCell id="RySmwU1NaelSAj_QudRe-8" value="Goind with Exchange" style="rounded=1;whiteSpace=wrap;html=1;" vertex="1" parent="1">
          <mxGeometry x="550" y="260" width="120" height="60" as="geometry" />
        </mxCell>
        <mxCell id="RySmwU1NaelSAj_QudRe-19" style="edgeStyle=orthogonalEdgeStyle;rounded=0;orthogonalLoop=1;jettySize=auto;html=1;" edge="1" parent="1" source="RySmwU1NaelSAj_QudRe-11" target="RySmwU1NaelSAj_QudRe-17">
          <mxGeometry relative="1" as="geometry" />
        </mxCell>
        <mxCell id="RySmwU1NaelSAj_QudRe-11" value="&lt;div&gt;Get Vtiger User Events&lt;/div&gt;&lt;div&gt;&lt;br&gt; &lt;/div&gt;" style="rounded=1;whiteSpace=wrap;html=1;" vertex="1" parent="1">
          <mxGeometry x="230" y="350" width="120" height="60" as="geometry" />
        </mxCell>
        <mxCell id="RySmwU1NaelSAj_QudRe-20" style="edgeStyle=orthogonalEdgeStyle;rounded=0;orthogonalLoop=1;jettySize=auto;html=1;entryX=1;entryY=0.66;entryDx=0;entryDy=0;entryPerimeter=0;" edge="1" parent="1" source="RySmwU1NaelSAj_QudRe-14" target="RySmwU1NaelSAj_QudRe-17">
          <mxGeometry relative="1" as="geometry" />
        </mxCell>
        <mxCell id="RySmwU1NaelSAj_QudRe-14" value="&lt;div&gt;Get Exchange User Events&lt;/div&gt;&lt;div&gt;&lt;br&gt; &lt;/div&gt;" style="rounded=1;whiteSpace=wrap;html=1;" vertex="1" parent="1">
          <mxGeometry x="560" y="358" width="120" height="60" as="geometry" />
        </mxCell>
        <mxCell id="RySmwU1NaelSAj_QudRe-22" style="edgeStyle=orthogonalEdgeStyle;rounded=0;orthogonalLoop=1;jettySize=auto;html=1;entryX=0.5;entryY=0;entryDx=0;entryDy=0;" edge="1" parent="1" source="RySmwU1NaelSAj_QudRe-17" target="RySmwU1NaelSAj_QudRe-21">
          <mxGeometry relative="1" as="geometry" />
        </mxCell>
        <mxCell id="RySmwU1NaelSAj_QudRe-17" value="Getting list" style="ellipse;whiteSpace=wrap;html=1;" vertex="1" parent="1">
          <mxGeometry x="410" y="355" width="80" height="50" as="geometry" />
        </mxCell>
        <mxCell id="RySmwU1NaelSAj_QudRe-24" style="edgeStyle=orthogonalEdgeStyle;rounded=0;orthogonalLoop=1;jettySize=auto;html=1;entryX=0.5;entryY=0;entryDx=0;entryDy=0;" edge="1" parent="1" source="RySmwU1NaelSAj_QudRe-21" target="RySmwU1NaelSAj_QudRe-23">
          <mxGeometry relative="1" as="geometry" />
        </mxCell>
        <mxCell id="RySmwU1NaelSAj_QudRe-21" value="Event Differences" style="rounded=1;whiteSpace=wrap;html=1;" vertex="1" parent="1">
          <mxGeometry x="390" y="470" width="120" height="60" as="geometry" />
        </mxCell>
        <mxCell id="RySmwU1NaelSAj_QudRe-26" style="edgeStyle=orthogonalEdgeStyle;rounded=0;orthogonalLoop=1;jettySize=auto;html=1;entryX=0.5;entryY=0;entryDx=0;entryDy=0;" edge="1" parent="1" source="RySmwU1NaelSAj_QudRe-23" target="RySmwU1NaelSAj_QudRe-25">
          <mxGeometry relative="1" as="geometry" />
        </mxCell>
        <mxCell id="RySmwU1NaelSAj_QudRe-23" value="Define Actions" style="rounded=1;whiteSpace=wrap;html=1;" vertex="1" parent="1">
          <mxGeometry x="390" y="570" width="120" height="60" as="geometry" />
        </mxCell>
        <mxCell id="RySmwU1NaelSAj_QudRe-28" style="edgeStyle=orthogonalEdgeStyle;rounded=0;orthogonalLoop=1;jettySize=auto;html=1;entryX=0;entryY=0.5;entryDx=0;entryDy=0;" edge="1" parent="1" source="RySmwU1NaelSAj_QudRe-25" target="RySmwU1NaelSAj_QudRe-27">
          <mxGeometry relative="1" as="geometry" />
        </mxCell>
        <mxCell id="RySmwU1NaelSAj_QudRe-25" value="Run Sync on actions" style="rounded=1;whiteSpace=wrap;html=1;" vertex="1" parent="1">
          <mxGeometry x="390" y="680" width="120" height="60" as="geometry" />
        </mxCell>
        <mxCell id="RySmwU1NaelSAj_QudRe-27" value="Add or update boundary" style="rounded=1;whiteSpace=wrap;html=1;" vertex="1" parent="1">
          <mxGeometry x="560" y="680" width="120" height="60" as="geometry" />
        </mxCell>
      </root>
    </mxGraphModel>
  </diagram>
</mxfile>
